<?xml version="1.0" encoding="utf-8"?>
<svg version="1.1" xmlns:xlink="http://www.w3.org/1999/xlink" width="160px" height="8px" xmlns="http://www.w3.org/2000/svg">
  <defs>
    <linearGradient gradientUnits="userSpaceOnUse" x1="967" y1="2755" x2="967" y2="2763" id="LinearGradient42">
      <stop id="Stop43" stop-color="#1900ff" stop-opacity="0.996078431372549" offset="0" />
      <stop id="Stop44" stop-color="#9600ff" stop-opacity="0.917647058823529" offset="1" />
    </linearGradient>
  </defs>
  <g transform="matrix(1 0 0 1 -887 -2755 )">
    <path d="M 888 2759  A 3 3 0 0 1 891 2756 L 1043 2756  A 3 3 0 0 1 1046 2759 A 3 3 0 0 1 1043 2762 L 891 2762  A 3 3 0 0 1 888 2759 Z " fill-rule="nonzero" fill="url(#LinearGradient42)" stroke="none" />
    <path d="M 887.5 2759  A 3.5 3.5 0 0 1 891 2755.5 L 1043 2755.5  A 3.5 3.5 0 0 1 1046.5 2759 A 3.5 3.5 0 0 1 1043 2762.5 L 891 2762.5  A 3.5 3.5 0 0 1 887.5 2759 Z " stroke-width="1" stroke="#7e72ff" fill="none" stroke-opacity="0.996078431372549" />
  </g>
</svg>